<svg width="118" height="118" viewBox="0 0 118 118" fill="none" xmlns="http://www.w3.org/2000/svg">
<path d="M67.1431 40.0955L70.5735 46.8334H79.889C80.3808 46.8334 81 47.3142 81 48.1805V76.6528C81 77.5192 80.3807 78 79.8889 78H38.1111C37.6194 78 37 77.5192 37 76.6527V48.1805C37 47.3142 37.6193 46.8334 38.1111 46.8334H47.426L50.8579 40.0943C50.8784 40.0363 50.9062 40.0094 50.9179 40.0007L50.9188 40H67.0811L67.0823 40.0009C67.0944 40.0099 67.1226 40.0377 67.1431 40.0955Z" stroke="#9B63F8" stroke-width="3"/>
<g clip-path="url(#clip0_1:10)">
<path d="M48 61.5153C48 55.7169 52.7133 51 58.5 51C64.2868 51 69 55.7165 69 61.5153C69 67.3143 64.2868 72.0311 58.5 72.0311C52.7132 72.0311 48 67.3143 48 61.5153Z" stroke="#9B63F8" stroke-width="3"/>
<path d="M57.1803 55.6377H60.0093V68.141H57.1803V55.6377Z" fill="#9B63F8"/>
<path d="M52.9369 63.4523V60.3264H64.2528V63.4523H52.9369Z" fill="#9B63F8"/>
</g>
<defs>
<clipPath id="clip0_1:10">
<rect width="24" height="25" fill="white" transform="translate(46.5 49.5)"/>
</clipPath>
</defs>
</svg>
